<?xml version="1.0" encoding="utf-8"?>
<!-- Generator: Adobe Illustrator 27.5.0, SVG Export Plug-In . SVG Version: 6.00 Build 0)  -->
<svg version="1.1" id="Layer_1" xmlns="http://www.w3.org/2000/svg" xmlns:xlink="http://www.w3.org/1999/xlink" x="0px" y="0px"
	 viewBox="0 0 841.89 708.28" style="enable-background:new 0 0 841.89 708.28;" xml:space="preserve">
<style type="text/css">
	.st0{fill:#0C3F6C;}
	.st1{fill:#646363;}
	.st2{fill:url(#SVGID_1_);}
</style>
<g>
	<polygon class="st0" points="624.9,201.7 568.75,257.84 568.75,448.28 568.76,448.28 624.85,448.28 624.92,448.28 	"/>
	<polyline class="st0" points="233.01,98.51 233.01,176.9 328.43,272.67 328.43,193.69 233.01,98.51 	"/>
	<polyline class="st0" points="624.92,96.99 429.04,294.04 390.52,255.62 390.52,334.98 429.04,373.63 624.9,176.63 624.92,96.99 	
		"/>
	<polygon class="st0" points="233.01,201.96 233,448.28 290.33,448.28 289.78,258.73 	"/>
	<polygon class="st1" points="457.96,369.13 457.96,449.63 514.05,393.21 514.05,313.04 	"/>
	<polygon class="st1" points="506.56,156.78 428.7,234.65 428.7,265.17 513.99,179.88 513.99,164.21 	"/>
	<g>
		<path class="st1" d="M389.06,589.8v20.57h-4.62l-1.17-4.37c-2.54,3.15-6.25,5.03-11.23,5.03c-10.67,0-18.29-7.92-18.29-18.44
			c0-10.46,7.62-18.39,18.29-18.39c6.4,0,11.68,2.84,14.93,7.42l-8.74,5.74c-1.32-1.83-3.45-3-6.2-3c-4.88,0-7.82,3.61-7.82,8.23
			c0,4.67,2.95,8.69,7.82,8.69c3.5,0,5.89-1.37,7.01-4.11h-7.92v-7.37H389.06z"/>
		<path class="st1" d="M433.56,594.27v16.1h-9.14v-14.33c0-1.98-1.27-3.05-3-3.05c-1.78,0-3,1.07-3,3.05v14.33h-9.14v-14.33
			c0-1.98-1.22-3.05-2.95-3.05c-1.78,0-3,1.07-3,3.05v14.33h-9.19v-25.75h9.19v2.08c1.32-1.52,3.3-2.69,6.35-2.69
			c3.66,0,5.79,1.47,7.06,3.4c1.57-1.83,4.01-3.4,7.57-3.4C432.14,584.01,433.56,590.51,433.56,594.27z"/>
		<path class="st1" d="M466.72,597.52c0,6.76-3.96,13.51-11.99,13.51c-3.15,0-5.28-1.07-6.71-2.74v2.08h-9.14v-35.56h9.14v11.89
			c1.42-1.63,3.56-2.69,6.71-2.69C462.76,584.01,466.72,590.77,466.72,597.52z M457.48,597.52c0-2.69-1.73-4.62-4.57-4.62
			c-2.74,0-4.62,1.88-4.62,4.62s1.88,4.57,4.62,4.57C455.75,602.09,457.48,600.16,457.48,597.52z"/>
		<path class="st1" d="M502.89,574.82v35.56h-10.51v-13.21H481.3v13.21h-10.51v-35.56h10.51v12.95h11.07v-12.95H502.89z"/>
	</g>
	<g>
		<path class="st1" d="M190.24,529.86h-8.4v24.89h-22.87v-77.44h31.71c21.32,0,31.71,10.73,31.71,27.77
			c0,9.85-3.98,16.59-11.05,20.47l16.46,29.21h-24.97L190.24,529.86z M181.84,511.94h8.84c5.19,0,8.62-1.77,8.62-6.86
			c0-4.65-2.65-6.97-8.62-6.97h-8.84V511.94z"/>
		<path class="st1" d="M286.02,532.19l-38.78,0.11c1.55,5.31,5.74,8.41,12.26,8.41c4.97,0,8.62-2.54,10.38-4.65l13.37,7.96
			c-3.98,6.97-12.81,12.17-23.75,12.17c-18.89,0-31.71-11.84-31.71-29.32c0-16.48,12.48-29.54,29.61-29.54
			C273.98,497.34,288.56,509.51,286.02,532.19z M267.79,521.34c-1.1-5.2-4.53-8.52-10.38-8.52c-5.08,0-8.73,3.43-10.16,8.63
			L267.79,521.34z"/>
		<path class="st1" d="M349.1,498.67l-21.76,56.09H308l-21.65-56.09h20.99l10.38,32.75l10.38-32.75H349.1z"/>
		<path class="st1" d="M409.19,526.77c0,17.15-12.59,29.43-30.05,29.43s-30.05-12.28-30.05-29.43s12.59-29.43,30.05-29.43
			S409.19,509.62,409.19,526.77z M389.09,526.77c0-6.2-4.2-10.07-9.94-10.07s-10.05,3.87-10.05,10.07c0,6.19,4.31,9.96,10.05,9.96
			S389.09,532.96,389.09,526.77z"/>
		<path class="st0" d="M503.76,477.32v77.44h-22.87v-42.48l-18.12,31.64h-6.96l-18.23-31.64v42.48h-22.87v-77.44h24.86l19.66,34.74
			l19.77-34.74H503.76z"/>
		<path class="st0" d="M562.97,519.91v34.85h-20v-5.2c-2.87,4.31-9.39,6.64-14.91,6.64c-6.96,0-18.78-2.88-18.78-16.48
			c0-18.81,23.42-18.81,27.18-18.81c2.54,0,5.41,0,6.52,0c0-5.2-2.98-8.08-8.06-8.08c-3.76,0-7.73,1.44-9.94,3.21l-12.7-8.63
			c6.08-6.42,14.69-10.07,25.52-10.07C555.68,497.34,562.97,506.52,562.97,519.91z M542.98,530.75c-0.33,0-0.88,0-1.44,0
			c-8.84,0-12.15,2.1-12.15,5.64c0,2.65,1.99,4.65,5.52,4.65c3.76,0,6.63-1.88,8.06-3.98V530.75z"/>
		<path class="st0" d="M624.17,519.69v35.07h-19.89v-30.2c0-4.42-3.09-7.63-7.95-7.63c-4.86,0-7.95,3.21-7.95,7.63v30.2H568.5
			v-56.09h19.88v5.97c2.87-3.98,7.62-7.3,15.25-7.3C621.19,497.34,624.17,511.5,624.17,519.69z"/>
		<path class="st0" d="M685.38,519.69v35.07h-19.88v-30.2c0-4.42-3.09-7.63-7.95-7.63c-4.86,0-7.95,3.21-7.95,7.63v30.2H629.7
			v-56.09h19.89v5.97c2.87-3.98,7.62-7.3,15.25-7.3C682.39,497.34,685.38,511.5,685.38,519.69z"/>
	</g>
	<polyline class="st1" points="345.78,94.72 345.78,150.81 345.78,447.68 401.87,447.68 401.87,150.81 457.96,150.81 457.96,234.13 
		514.05,178.04 514.05,152.92 457.77,94.72 	"/>
	<linearGradient id="SVGID_1_" gradientUnits="userSpaceOnUse" x1="401.8629" y1="122.764" x2="457.9505" y2="122.764">
		<stop  offset="0.4272" style="stop-color:#646363"/>
		<stop  offset="1" style="stop-color:#000000"/>
	</linearGradient>
	<polygon class="st2" points="401.86,94.72 401.87,150.81 457.95,150.81 457.95,94.9 457.77,94.72 	"/>
</g>
</svg>
