<svg version="1.1" id="Layer_1" xmlns="http://www.w3.org/2000/svg" x="0" y="0" viewBox="0 0 841.89 708.28" style="enable-background:new 0 0 841.89 708.28" xml:space="preserve"><style>.st0{fill:#0c3f6c}.st1{fill:#646363}</style><path class="st0" d="m624.9 201.7-56.15 56.14v190.44h56.17zM233.01 98.51v78.39l95.42 95.77v-78.98l-95.42-95.18M624.92 96.99 429.04 294.04l-38.52-38.42v79.36l38.52 38.65 195.86-197 .02-79.64M233.01 201.96 233 448.28h57.33l-.55-189.55z"/><path class="st1" d="M457.96 369.13v80.5l56.09-56.42v-80.17zM506.56 156.78l-77.86 77.87v30.52l85.29-85.29v-15.67zM389.06 589.8v20.57h-4.62l-1.17-4.37c-2.54 3.15-6.25 5.03-11.23 5.03-10.67 0-18.29-7.92-18.29-18.44 0-10.46 7.62-18.39 18.29-18.39 6.4 0 11.68 2.84 14.93 7.42l-8.74 5.74c-1.32-1.83-3.45-3-6.2-3-4.88 0-7.82 3.61-7.82 8.23 0 4.67 2.95 8.69 7.82 8.69 3.5 0 5.89-1.37 7.01-4.11h-7.92v-7.37h17.94zM433.56 594.27v16.1h-9.14v-14.33c0-1.98-1.27-3.05-3-3.05-1.78 0-3 1.07-3 3.05v14.33h-9.14v-14.33c0-1.98-1.22-3.05-2.95-3.05-1.78 0-3 1.07-3 3.05v14.33h-9.19v-25.75h9.19v2.08c1.32-1.52 3.3-2.69 6.35-2.69 3.66 0 5.79 1.47 7.06 3.4 1.57-1.83 4.01-3.4 7.57-3.4 7.83 0 9.25 6.5 9.25 10.26zM466.72 597.52c0 6.76-3.96 13.51-11.99 13.51-3.15 0-5.28-1.07-6.71-2.74v2.08h-9.14v-35.56h9.14v11.89c1.42-1.63 3.56-2.69 6.71-2.69 8.03 0 11.99 6.76 11.99 13.51zm-9.24 0c0-2.69-1.73-4.62-4.57-4.62-2.74 0-4.62 1.88-4.62 4.62s1.88 4.57 4.62 4.57c2.84 0 4.57-1.93 4.57-4.57zM502.89 574.82v35.56h-10.51v-13.21H481.3v13.21h-10.51v-35.56h10.51v12.95h11.07v-12.95h10.52zM190.24 529.86h-8.4v24.89h-22.87v-77.44h31.71c21.32 0 31.71 10.73 31.71 27.77 0 9.85-3.98 16.59-11.05 20.47l16.46 29.21h-24.97l-12.59-24.9zm-8.4-17.92h8.84c5.19 0 8.62-1.77 8.62-6.86 0-4.65-2.65-6.97-8.62-6.97h-8.84v13.83zM286.02 532.19l-38.78.11c1.55 5.31 5.74 8.41 12.26 8.41 4.97 0 8.62-2.54 10.38-4.65l13.37 7.96c-3.98 6.97-12.81 12.17-23.75 12.17-18.89 0-31.71-11.84-31.71-29.32 0-16.48 12.48-29.54 29.61-29.54 16.58.01 31.16 12.18 28.62 34.86zm-18.23-10.85c-1.1-5.2-4.53-8.52-10.38-8.52-5.08 0-8.73 3.43-10.16 8.63l20.54-.11zM349.1 498.67l-21.76 56.09H308l-21.65-56.09h20.99l10.38 32.75 10.38-32.75h21zM409.19 526.77c0 17.15-12.59 29.43-30.05 29.43s-30.05-12.28-30.05-29.43 12.59-29.43 30.05-29.43 30.05 12.28 30.05 29.43zm-20.1 0c0-6.2-4.2-10.07-9.94-10.07s-10.05 3.87-10.05 10.07c0 6.19 4.31 9.96 10.05 9.96s9.94-3.77 9.94-9.96z"/><path class="st0" d="M503.76 477.32v77.44h-22.87v-42.48l-18.12 31.64h-6.96l-18.23-31.64v42.48h-22.87v-77.44h24.86l19.66 34.74L479 477.32h24.76zM562.97 519.91v34.85h-20v-5.2c-2.87 4.31-9.39 6.64-14.91 6.64-6.96 0-18.78-2.88-18.78-16.48 0-18.81 23.42-18.81 27.18-18.81h6.52c0-5.2-2.98-8.08-8.06-8.08-3.76 0-7.73 1.44-9.94 3.21l-12.7-8.63c6.08-6.42 14.69-10.07 25.52-10.07 17.88 0 25.17 9.18 25.17 22.57zm-19.99 10.84h-1.44c-8.84 0-12.15 2.1-12.15 5.64 0 2.65 1.99 4.65 5.52 4.65 3.76 0 6.63-1.88 8.06-3.98v-6.31zM624.17 519.69v35.07h-19.89v-30.2c0-4.42-3.09-7.63-7.95-7.63s-7.95 3.21-7.95 7.63v30.2H568.5v-56.09h19.88v5.97c2.87-3.98 7.62-7.3 15.25-7.3 17.56 0 20.54 14.16 20.54 22.35zM685.38 519.69v35.07H665.5v-30.2c0-4.42-3.09-7.63-7.95-7.63s-7.95 3.21-7.95 7.63v30.2h-19.9v-56.09h19.89v5.97c2.87-3.98 7.62-7.3 15.25-7.3 17.55 0 20.54 14.16 20.54 22.35z"/><path class="st1" d="M345.78 94.72V447.68h56.09V150.81h56.09v83.32l56.09-56.09v-25.12l-56.28-58.2"/><linearGradient id="SVGID_1_" gradientUnits="userSpaceOnUse" x1="401.863" y1="122.764" x2="457.95" y2="122.764"><stop offset=".427" style="stop-color:#646363"/><stop offset="1" style="stop-color:#000"/></linearGradient><path style="fill:url(#SVGID_1_)" d="m401.86 94.72.01 56.09h56.08V94.9l-.18-.18z"/></svg>